<?xml version="1.0" encoding="utf-8"?>
<!-- Generator: Adobe Illustrator 16.0.4, SVG Export Plug-In . SVG Version: 6.00 Build 0)  -->
<!DOCTYPE svg PUBLIC "-//W3C//DTD SVG 1.1//EN" "http://www.w3.org/Graphics/SVG/1.1/DTD/svg11.dtd">
<svg version="1.1" xmlns="http://www.w3.org/2000/svg" xmlns:xlink="http://www.w3.org/1999/xlink" x="0px" y="0px" width="600px"
	 height="60.089px" viewBox="0 0 600 60.089" enable-background="new 0 0 600 60.089" xml:space="preserve">
<g id="Ebene_1">
	<rect x="0.006" fill="#FFFFFF" stroke="#000000" stroke-width="0.25" stroke-miterlimit="10" width="60.089" height="60.089"/>
	<rect x="67.493" fill="#FFFFFF" stroke="#000000" stroke-width="0.25" stroke-miterlimit="10" width="60.089" height="60.089"/>
	<rect x="134.98" fill="#FFFFFF" stroke="#000000" stroke-width="0.25" stroke-miterlimit="10" width="60.089" height="60.089"/>
	<rect x="202.467" fill="#FFFFFF" stroke="#000000" stroke-width="0.25" stroke-miterlimit="10" width="60.09" height="60.089"/>
	<rect x="269.955" fill="#FFFFFF" stroke="#000000" stroke-width="0.25" stroke-miterlimit="10" width="60.088" height="60.089"/>
	<rect x="337.442" fill="#FFFFFF" stroke="#000000" stroke-width="0.25" stroke-miterlimit="10" width="60.089" height="60.089"/>
	<rect x="404.931" fill="#FFFFFF" stroke="#000000" stroke-width="0.25" stroke-miterlimit="10" width="60.088" height="60.089"/>
	<rect x="472.418" fill="#FFFFFF" stroke="#000000" stroke-width="0.25" stroke-miterlimit="10" width="60.088" height="60.089"/>
	<rect x="539.905" fill="#FFFFFF" stroke="#000000" stroke-width="0.25" stroke-miterlimit="10" width="60.089" height="60.089"/>
	<g>
		<path d="M33.494,30.046c0,15.861-1.541,28.719-3.443,28.719s-3.444-12.858-3.444-28.719c0-15.865,1.542-28.723,3.444-28.723
			S33.494,14.182,33.494,30.046z"/>
		<path d="M103.991,30.046c0,14.073-2.889,25.482-6.453,25.482s-6.454-11.41-6.454-25.482c0-14.077,2.89-25.486,6.454-25.486
			S103.991,15.969,103.991,30.046z"/>
		<path d="M174.488,30.046c0,12.285-4.236,22.245-9.463,22.245s-9.463-9.96-9.463-22.245c0-12.289,4.236-22.249,9.463-22.249
			S174.488,17.757,174.488,30.046z"/>
		<ellipse cx="232.513" cy="30.045" rx="12.473" ry="19.01"/>
		<ellipse cx="300" cy="30.045" rx="15.483" ry="15.772"/>
		<ellipse cx="367.488" cy="30.045" rx="18.492" ry="12.536"/>
		<ellipse cx="434.976" cy="30.045" rx="21.502" ry="9.299"/>
		<ellipse cx="502.464" cy="30.045" rx="24.512" ry="6.062"/>
		<ellipse cx="569.951" cy="30.045" rx="27.521" ry="2.825"/>
	</g>
</g>
<g id="Isolationsmodus">
</g>
</svg>
